<svg xmlns="http://www.w3.org/2000/svg" xmlns:xlink="http://www.w3.org/1999/xlink" width="217.875" height="71.057" viewBox="0 0 217.875 71.057">
  <defs>
    <clipPath id="clip-path">
      <rect id="Rectángulo_1" data-name="Rectángulo 1" width="35" height="25" transform="translate(0.147 -0.099)" fill="#11518b" stroke="#707070" stroke-width="1"/>
    </clipPath>
  </defs>
  <g id="Grupo_22" data-name="Grupo 22" transform="translate(-1037.125 -89.882)">
    <g id="Grupo_1" data-name="Grupo 1" transform="translate(757 -98)">
      <g id="Trazado_10" data-name="Trazado 10" transform="translate(300.935 190.352) rotate(21)" fill="none">
        <path d="M9.64,3.06,47.958-1.863A4.314,4.314,0,0,1,53.04,3.219L48.117,41.536a8.017,8.017,0,0,1-6.58,6.58L3.219,53.04a4.314,4.314,0,0,1-5.082-5.082L3.06,9.64A8.017,8.017,0,0,1,9.64,3.06Z" stroke="none"/>
        <path d="M 48.70199584960938 -0.9118614196777344 C 48.50146484375 -0.9118614196777344 48.2939338684082 -0.8982582092285156 48.08517456054688 -0.8714408874511719 L 9.767265319824219 4.051540374755859 C 8.427986145019531 4.223609924316406 7.091632843017578 4.917140960693359 6.004383087158203 6.004390716552734 C 4.917144775390625 7.091629028320312 4.223613739013672 8.427982330322266 4.051544189453125 9.767261505126953 L -0.8714370727539062 48.08515930175781 C -1.020576477050781 49.24592208862305 -0.7491340637207031 50.28707885742188 -0.1071357727050781 51.01684188842773 C 0.5006141662597656 51.70767974853516 1.417385101318359 52.08814239501953 2.474292755126953 52.08814239501953 C 2.674823760986328 52.08814239501953 2.882354736328125 52.07453918457031 3.091114044189453 52.04772186279297 L 41.40902328491211 47.12472915649414 C 42.74830627441406 46.95267105102539 44.08465576171875 46.25913238525391 45.17190551757812 45.17189025878906 C 46.2591438293457 44.08465194702148 46.95267486572266 42.74829864501953 47.1247444152832 41.40901947021484 L 52.04772567749023 3.091121673583984 C 52.19685363769531 1.930351257324219 51.92542266845703 0.889190673828125 51.28342437744141 0.1594314575195312 C 50.67566299438477 -0.5313987731933594 49.75889587402344 -0.9118614196777344 48.70199584960938 -0.9118614196777344 M 48.70199966430664 -1.911861419677734 C 51.52080154418945 -1.911861419677734 53.42066192626953 0.2523269653320312 53.03957366943359 3.218551635742188 L 48.11659240722656 41.53644943237305 C 47.70284271240234 44.75680923461914 44.7568244934082 47.70283889770508 41.53645324707031 48.11658096313477 L 3.218544006347656 53.03956985473633 C 2.964397430419922 53.07222366333008 2.715808868408203 53.08814239501953 2.474292755126953 53.08814239501953 C -0.344512939453125 53.08814239501953 -2.244384765625 50.92394638061523 -1.863285064697266 47.95772933959961 L 3.059696197509766 9.63983154296875 C 3.473445892333984 6.419471740722656 6.419464111328125 3.473442077636719 9.639835357666016 3.0596923828125 L 47.95774459838867 -1.863288879394531 C 48.21189117431641 -1.895942687988281 48.46048355102539 -1.911861419677734 48.70199966430664 -1.911861419677734 Z" stroke="none" fill="#fff"/>
      </g>
      <g id="Enmascarar_grupo_1" data-name="Enmascarar grupo 1" transform="translate(297.853 211.099)" clip-path="url(#clip-path)">
        <g id="menu_1_" data-name="menu (1)" transform="translate(4.377 0.087)">
          <g id="Grupo_2" data-name="Grupo 2" transform="translate(0)">
            <g id="Grupo_1-2" data-name="Grupo 1">
              <path id="Trazado_1" data-name="Trazado 1" d="M7.513,0H1.486A.711.711,0,0,0,.76.691V6.424a.711.711,0,0,0,.726.691H7.513a.711.711,0,0,0,.726-.691V.691A.711.711,0,0,0,7.513,0ZM6.859,5.8H2.213V1.382H6.859Z" transform="translate(-0.76)" fill="#fff"/>
            </g>
          </g>
          <g id="Grupo_4" data-name="Grupo 4" transform="translate(9.076)">
            <g id="Grupo_3" data-name="Grupo 3">
              <path id="Trazado_2" data-name="Trazado 2" d="M39.2,0H33.172a.711.711,0,0,0-.726.691V6.424a.711.711,0,0,0,.726.691H39.2a.711.711,0,0,0,.726-.691V.691A.711.711,0,0,0,39.2,0Zm-.653,5.8H33.9V1.382h4.647Z" transform="translate(-32.446)" fill="#fff"/>
            </g>
          </g>
          <g id="Grupo_6" data-name="Grupo 6" transform="translate(0 8.704)">
            <g id="Grupo_5" data-name="Grupo 5">
              <path id="Trazado_3" data-name="Trazado 3" d="M7.513,31.939H1.486a.711.711,0,0,0-.726.691v5.733a.711.711,0,0,0,.726.691H7.513a.711.711,0,0,0,.726-.691V32.629A.711.711,0,0,0,7.513,31.939Zm-.653,5.733H2.213V33.32H6.859Z" transform="translate(-0.76 -31.939)" fill="#fff"/>
            </g>
          </g>
          <g id="Grupo_8" data-name="Grupo 8" transform="translate(9.076 8.704)">
            <g id="Grupo_7" data-name="Grupo 7">
              <path id="Trazado_4" data-name="Trazado 4" d="M39.2,31.939H33.172a.711.711,0,0,0-.726.691v5.733a.711.711,0,0,0,.726.691H39.2a.711.711,0,0,0,.726-.691V32.629A.711.711,0,0,0,39.2,31.939Zm-.653,5.733H33.9V33.32h4.647Z" transform="translate(-32.446 -31.939)" fill="#fff"/>
            </g>
          </g>
          <g id="Grupo_10" data-name="Grupo 10" transform="translate(18.151)">
            <g id="Grupo_9" data-name="Grupo 9">
              <path id="Trazado_5" data-name="Trazado 5" d="M70.883,0H64.857a.711.711,0,0,0-.726.691V6.424a.711.711,0,0,0,.726.691h6.026a.711.711,0,0,0,.726-.691V.691A.711.711,0,0,0,70.883,0ZM70.23,5.8H65.583V1.382H70.23Z" transform="translate(-64.131)" fill="#fff"/>
            </g>
          </g>
          <g id="Grupo_12" data-name="Grupo 12" transform="translate(18.151 8.704)">
            <g id="Grupo_11" data-name="Grupo 11">
              <path id="Trazado_6" data-name="Trazado 6" d="M70.883,31.939H64.857a.711.711,0,0,0-.726.691v5.733a.711.711,0,0,0,.726.691h6.026a.711.711,0,0,0,.726-.691V32.629A.711.711,0,0,0,70.883,31.939Zm-.653,5.733H65.583V33.32H70.23Z" transform="translate(-64.131 -31.939)" fill="#fff"/>
            </g>
          </g>
          <g id="Grupo_14" data-name="Grupo 14" transform="translate(0 17.684)">
            <g id="Grupo_13" data-name="Grupo 13">
              <path id="Trazado_7" data-name="Trazado 7" d="M7.513,64.891H1.486a.711.711,0,0,0-.726.691v5.733a.711.711,0,0,0,.726.691H7.513a.711.711,0,0,0,.726-.691V65.582A.711.711,0,0,0,7.513,64.891Zm-.653,5.8H2.213V66.273H6.859Z" transform="translate(-0.76 -64.891)" fill="#fff"/>
            </g>
          </g>
          <g id="Grupo_16" data-name="Grupo 16" transform="translate(9.076 17.684)">
            <g id="Grupo_15" data-name="Grupo 15">
              <path id="Trazado_8" data-name="Trazado 8" d="M39.2,64.891H33.172a.711.711,0,0,0-.726.691v5.733a.711.711,0,0,0,.726.691H39.2a.711.711,0,0,0,.726-.691V65.582A.711.711,0,0,0,39.2,64.891Zm-.653,5.8H33.9V66.273h4.647Z" transform="translate(-32.446 -64.891)" fill="#fff"/>
            </g>
          </g>
          <g id="Grupo_18" data-name="Grupo 18" transform="translate(18.151 17.684)">
            <g id="Grupo_17" data-name="Grupo 17">
              <path id="Trazado_9" data-name="Trazado 9" d="M70.883,64.891H64.857a.711.711,0,0,0-.726.691v5.733a.711.711,0,0,0,.726.691h6.026a.711.711,0,0,0,.726-.691V65.582A.711.711,0,0,0,70.883,64.891Zm-.653,5.8H65.583V66.273H70.23Z" transform="translate(-64.131 -64.891)" fill="#fff"/>
            </g>
          </g>
        </g>
      </g>
      <text id="edutech" transform="translate(355 240)" fill="#fff" font-size="40" font-family="SegoeUI, Segoe UI"><tspan x="0" y="0">edutech</tspan></text>
    </g>
  </g>
</svg>
